 http://imgr.us/images/a41q1n127v4x4fsxugs.jpg

Info:
General
Format : MPEG-4
Format profile : Base Media
Codec ID : isom
File size : 1.18 GiB
Duration : 1h 43mn
Overall bit rate mode : Variable
Overall bit rate : 1 631 Kbps


Video
ID : 2
Format : AVC
Format/Info : Advanced Video Codec
Format profile : Baseline@L3.1
Format settings, CABAC : No
Format settings, ReFrames : 1 frame
Format settings, GOP : M=1, N=24
Muxing mode : Container profile=Baseline@3.0
Codec ID : avc1
Codec ID/Info : Advanced Video Coding
Duration : 1h 43mn
Bit rate mode : Variable
Bit rate : 1 496 Kbps
Maximum bit rate : 2 250 Kbps
Width : 853 pixels
Height : 480 pixels
Display aspect ratio : 16:9
Original display aspect ratio : 16:9
Frame rate mode : Constant
Frame rate : 29.970 fps
Color space : YUV
Chroma subsampling : 4:2:0
Bit depth : 8 bits
Scan type : Progressive
Bits/(Pixel*Frame) : 0.123
Stream size : 1.08 GiB (92%)




Audio
ID : 1
Format : AAC
Format/Info : Advanced Audio Codec
Format profile : LC
Codec ID : 40
Duration : 1h 43mn
Bit rate mode : Variable
Bit rate : 128 Kbps
Maximum bit rate : 174 Kbps
Channel(s) : 2 channels
Channel positions : Front: L R
Sampling rate : 48.0 KHz
Compression mode : Lossy
Stream size : 94.8 MiB (8%)
Language : English


IMDb: http://www.imdb.com/title/tt1351685/




Screens: 
http://imgr.us/images/e8qjh3bxpvb65znl7bz.png 
http://imgr.us/images/c55qudv2yph3t0oi649.png 
http://imgr.us/images/zshu9zjghx1xv0n2l9.png 
http://imgr.us/images/k40hh9r2dewbmhzhagz.jpg